<?xml version="1.0" encoding="utf-8"?>
<!-- Generator: Adobe Illustrator 16.0.1, SVG Export Plug-In . SVG Version: 6.00 Build 0)  -->
<!DOCTYPE svg PUBLIC "-//W3C//DTD SVG 1.1//EN" "http://www.w3.org/Graphics/SVG/1.1/DTD/svg11.dtd">
<svg version="1.1" id="Layer_1" xmlns="http://www.w3.org/2000/svg" xmlns:xlink="http://www.w3.org/1999/xlink" x="0px" y="0px"
	 width="345px" height="75px" viewBox="0 0 345 75" enable-background="new 0 0 345 75" xml:space="preserve">
<g display="none">
	<defs>
		<rect id="SVGID_1_" y="-112" width="345" height="75"/>
	</defs>
	<clipPath id="SVGID_2_" display="inline">
		<use xlink:href="#SVGID_1_"  overflow="visible"/>
	</clipPath>
	<g display="inline" clip-path="url(#SVGID_2_)">
		<path fill="#00A99D" stroke="#00A99D" stroke-miterlimit="10" d="M246.781-82.726c-2.225,0-4.14,0.793-5.746,2.378
			c-1.564,1.607-2.346,3.523-2.346,5.747s0.781,4.14,2.346,5.747c1.606,1.584,3.521,2.377,5.746,2.377
			c2.246,0,4.172-0.793,5.779-2.377c1.586-1.607,2.379-3.523,2.379-5.747s-0.793-4.14-2.379-5.747
			C250.953-81.933,249.027-82.726,246.781-82.726z"/>
		<path fill="#00A99D" stroke="#00A99D" stroke-miterlimit="10" d="M316.732-82.5H316.6c-1.035,0-2.037,0.164-3.006,0.582
			c-1.035,0.462-1.926,1.022-2.674,1.793c-0.661,0.792-1.201,1.634-1.619,2.58c-0.33,0.837-0.518,1.659-0.561,2.497l13.243-5.821
			c-0.661-0.528-1.376-0.849-2.147-1.179C318.824-82.422,317.789-82.5,316.732-82.5z"/>
		<path fill="#00A99D" stroke="#00A99D" stroke-miterlimit="10" d="M344.5-112.5h-173v37.899c0,4.271-1.317,7.927-4.377,10.965
			c-3.017,3.038-6.554,4.558-10.825,4.558c-4.293,0-7.906-1.52-10.944-4.558s-4.531-6.693-4.531-10.965
			c0-4.294,1.533-7.948,4.572-10.966c3.038-3.06,6.696-4.59,10.989-4.59c3.017,0,6.117,0.771,8.117,2.312V-112.5h-165v77h268v-20.44
			v-18.66c0-4.294,1.43-7.948,4.424-10.966c3.039-3.06,6.672-4.59,10.965-4.59c4.271,0,7.899,1.53,10.915,4.59
			c3.061,3.018,4.584,6.672,4.584,10.966c0,4.271-1.536,7.927-4.597,10.965c-3.016,3.038-6.744,4.558-11.016,4.558
			c-3.038,0-5.275-0.76-8.275-2.279v5.417v20.44h70V-112.5z M23.448-77.508c3.787,0.441,6.517,1.773,8.19,3.997
			c1.145,1.519,1.717,3.368,1.717,5.548c0,2.599-1.019,4.729-3.055,6.392c-2.037,1.662-4.464,2.493-7.283,2.493
			c-2.642,0-4.932-0.842-6.87-2.515c-2.113-1.827-3.17-3.907-3.17-6.907h7.2c0,1,0.474,1.546,1.42,1.92
			c0.484,0.198,0.958,0.301,1.42,0.301c0.903,0,1.629-0.132,2.18-0.396c0.55-0.265,0.869-0.693,0.958-1.289
			c0-0.638-0.154-1.099-0.462-1.386c-0.507-0.506-1.53-0.858-3.071-1.057c-3.215-0.352-5.725-1.497-7.53-3.436
			c-1.607-1.717-2.411-3.709-2.411-5.977c0-2.687,0.88-5.021,2.642-7.002c1.916-2.201,4.426-3.303,7.53-3.303
			c3.083,0,5.625,1.013,7.629,3.016c2.003,2.026,3.005,4.607,3.005,7.607h-7.2c0-2-1.146-3.38-3.435-3.38
			c-1.981,0-2.972,1.018-2.972,3.067C19.881-78.559,21.07-77.793,23.448-77.508z M62.938-63.636
			c-3.039,3.038-6.694,4.558-10.965,4.558c-4.272,0-7.916-1.52-10.932-4.558c-3.061-3.038-4.591-6.693-4.591-10.965
			s1.53-7.915,4.591-10.933c3.017-3.06,6.66-4.59,10.932-4.59c4.271,0,7.926,1.53,10.965,4.59c3.039,3.018,4.558,6.661,4.558,10.933
			S65.977-66.674,62.938-63.636z M102.5-74.369c0,4.227-1.693,7.616-4.687,10.589c-2.973,2.994-6.769,4.28-10.996,4.28h-0.066
			c-4.228,0-7.807-1.286-10.779-4.28c-2.995-2.973-4.472-6.362-4.472-10.589V-90.5h7v16.131c0,2.201,0.933,4.084,2.475,5.646
			c1.585,1.564,3.549,2.346,5.729,2.346s3.981-0.781,5.566-2.346c1.541-1.562,2.231-3.445,2.231-5.646V-90.5h8V-74.369z M136.5-59.5
			h-7v-15.199c0-2.225-0.766-4.129-2.351-5.715c-1.586-1.562-3.466-2.344-5.667-2.344c-2.224,0-4.073,0.781-5.659,2.344
			c-1.585,1.586-2.323,3.49-2.323,5.715V-59.5h-7v-15.199c0-4.25,1.294-7.883,4.311-10.899s6.542-4.524,10.792-4.524
			c4.228,0,7.603,1.508,10.619,4.524c3.016,3.017,4.278,6.649,4.278,10.899V-59.5z M186.658-77.508
			c3.786,0.441,6.517,1.773,8.189,3.997c1.145,1.519,1.718,3.368,1.718,5.548c0,2.599-1.019,4.729-3.055,6.392
			c-2.037,1.662-4.464,2.493-7.282,2.493c-2.643,0-4.933-0.842-6.87-2.515c-2.113-1.827-3.171-3.907-3.171-6.907h7.2
			c0,1,0.474,1.546,1.421,1.92c0.483,0.198,0.957,0.301,1.42,0.301c0.902,0,1.629-0.132,2.18-0.396
			c0.55-0.265,0.869-0.693,0.957-1.289c0-0.638-0.154-1.099-0.462-1.386c-0.507-0.506-1.53-0.858-3.071-1.057
			c-3.215-0.352-5.725-1.497-7.53-3.436c-1.607-1.717-2.411-3.709-2.411-5.977c0-2.687,0.881-5.021,2.643-7.002
			c1.916-2.201,4.426-3.303,7.529-3.303c3.083,0,5.626,1.013,7.63,3.016c2.003,2.026,3.005,4.607,3.005,7.607h-7.199
			c0-2-1.146-3.38-3.436-3.38c-1.98,0-2.972,1.018-2.972,3.067C183.091-78.559,184.279-77.793,186.658-77.508z M210.438-68.854
			c1.606,1.584,3.521,2.377,5.746,2.377c2.246,0,4.172-0.793,5.779-2.377c0.572-0.572,1.035-1.178,1.387-1.816l5.945,4.458
			c-0.594,0.903-1.299,1.762-2.113,2.576c-3.039,3.038-6.705,4.558-10.998,4.558c-4.271,0-7.916-1.52-10.932-4.558
			c-3.061-3.038-4.592-6.693-4.592-10.965s1.531-7.915,4.592-10.933c3.016-3.06,6.66-4.59,10.932-4.59
			c4.293,0,7.959,1.53,10.998,4.59c0.814,0.793,1.52,1.641,2.113,2.543l-5.945,4.459c-0.374-0.639-0.836-1.243-1.387-1.816
			c-1.607-1.585-3.533-2.378-5.779-2.378c-2.225,0-4.14,0.793-5.746,2.378c-1.564,1.607-2.346,3.523-2.346,5.747
			S208.873-70.461,210.438-68.854z M262.5-59.5h-7v-1.89c-3,1.541-5.428,2.312-8.488,2.312c-4.271,0-8.031-1.52-11.047-4.558
			c-3.061-3.038-4.649-6.693-4.649-10.965s1.503-7.915,4.563-10.933c3.016-3.06,6.646-4.59,10.917-4.59
			c4.293,0,8.033,1.53,11.072,4.59c3.038,3.018,4.632,6.661,4.632,10.933V-59.5z M313.892-67.049
			c0.969,0.374,1.948,0.549,2.939,0.549h0.33c1.013,0,2.003-0.263,2.973-0.682c0.991-0.439,1.871-1.051,2.642-1.844
			c0.683-0.793,1.233-1.659,1.652-2.606l6.869,2.644c-0.748,1.871-1.806,3.546-3.17,5.021c-1.432,1.541-3.105,2.51-5.021,3.323
			c-1.828,0.838-3.732,1.144-5.714,1.144h-0.463c-1.959,0-3.854-0.141-5.68-0.846c-1.895-0.748-3.567-1.711-5.021-3.099
			c-1.542-1.431-2.641-3.052-3.455-4.968c-0.837-1.805-1.274-3.646-1.274-5.627v-0.496c0-1.98,0.272-3.875,0.978-5.68
			c0.748-1.895,1.765-3.567,3.13-5.021c1.453-1.541,3.119-2.908,5.034-3.723c1.871-0.836,3.8-1.542,5.826-1.542h0.33
			c1.96,0,3.853,0.552,5.681,1.278c1.871,0.748,3.545,1.911,5.021,3.297c1.761,1.695,3.435,4.528,5.021,8.403l-20.808,9.166
			C312.395-67.805,313.121-67.357,313.892-67.049z"/>
		<rect x="164.5" y="-113.5" fill="#FFFFFF" stroke="#00A99D" stroke-miterlimit="10" width="7" height="1"/>
		<rect x="267.5" y="-35.5" fill="#FFFFFF" stroke="#00A99D" stroke-miterlimit="10" width="7" height="0"/>
	</g>
</g>
<g>
	<path fill="#00A99D" d="M22.897,52.422c-2.506,0-4.708-0.809-6.543-2.394C14.466,48.396,13.486,46,13.369,44h6.232
		c0.125,1,0.549,1.434,1.692,1.885c0.537,0.221,1.079,0.336,1.604,0.336c0.973,0,1.779-0.148,2.396-0.444
		c0.697-0.336,1.125-0.912,1.236-1.667c0.005-0.852-0.204-1.44-0.616-1.825c-0.581-0.58-1.68-0.972-3.348-1.187
		c-3.086-0.337-5.515-1.44-7.229-3.28c-1.511-1.614-2.277-3.51-2.277-5.636c0-2.549,0.846-4.793,2.516-6.67
		c1.837-2.111,4.177-3.135,7.157-3.135c2.93,0,5.378,0.973,7.276,2.869C31.794,27.053,32.751,29,32.857,32h-6.209
		c-0.172-2-1.517-3.38-3.916-3.38c-2.271,0-3.472,1.229-3.472,3.567c0,1.543,1.348,2.485,4.007,2.804
		c3.63,0.424,6.271,1.7,7.851,3.8c1.073,1.424,1.617,3.188,1.617,5.247c0,2.463-0.939,4.427-2.871,6.003
		C27.928,51.621,25.583,52.422,22.897,52.422z"/>
	<path fill="#00A99D" d="M51.853,52.422c-4.113,0-7.672-1.483-10.577-4.41c-2.951-2.929-4.446-6.499-4.446-10.612
		c0-4.112,1.495-7.671,4.442-10.577c2.91-2.951,6.469-4.445,10.581-4.445c4.113,0,7.683,1.494,10.61,4.442
		c2.929,2.908,4.413,6.467,4.413,10.58c0,4.114-1.484,7.685-4.411,10.611C59.536,50.938,55.966,52.422,51.853,52.422z"/>
	<path fill="#00A99D" d="M86.63,52c-4.069,0-7.503-1.25-10.364-4.133C73.381,45.004,72,41.7,72,37.631V22h6v15.631
		c0,2.328,0.928,4.346,2.558,5.998c1.679,1.656,3.748,2.494,6.055,2.494s4.289-0.838,5.962-2.49C94.209,41.976,95,39.958,95,37.631
		V22h6v15.631c0,4.069-1.218,7.372-4.1,10.234C94.036,50.75,90.766,52,86.696,52H86.63z"/>
	<path fill="#00A99D" d="M130,52V37.301c0-2.351-0.883-4.393-2.558-6.068c-1.678-1.653-3.724-2.49-6.051-2.49
		c-2.35,0-4.29,0.837-5.964,2.487C113.749,32.908,113,34.95,113,37.301V52h-7V37.301c0-4.093,1.698-7.641,4.604-10.546
		s6.565-4.378,10.658-4.378c4.07,0,7.531,1.473,10.436,4.378c2.905,2.906,4.302,6.454,4.302,10.546V52H130z"/>
	<path fill="#00A99D" d="M156.283,52.422c-4.135,0-7.716-1.484-10.644-4.411s-4.412-6.497-4.412-10.611
		c0-4.135,1.484-7.705,4.411-10.61c2.929-2.951,6.51-4.445,10.645-4.445c2.904,0,5.593,0.751,7.901,2.232L165,25.07V-1h6v38.399
		c0,4.113-1.342,7.683-4.289,10.61C163.803,50.938,160.396,52.422,156.283,52.422z"/>
	<path fill="#00A99D" d="M186.107,52.422c-2.507,0-4.708-0.809-6.543-2.394c-1.889-1.632-2.868-4.028-2.985-6.028h6.232
		c0.125,1,0.55,1.434,1.692,1.885c0.537,0.221,1.078,0.336,1.604,0.336c0.973,0,1.778-0.148,2.396-0.444
		c0.697-0.336,1.124-0.912,1.236-1.667c0.005-0.852-0.204-1.44-0.616-1.825c-0.58-0.58-1.68-0.972-3.348-1.187
		c-3.087-0.337-5.516-1.44-7.229-3.28c-1.512-1.614-2.277-3.51-2.277-5.636c0-2.549,0.846-4.793,2.516-6.67
		c1.838-2.111,4.178-3.135,7.156-3.135c2.931,0,5.379,0.973,7.276,2.869c1.786,1.807,2.743,3.754,2.849,6.754h-6.209
		c-0.172-2-1.517-3.38-3.916-3.38c-2.271,0-3.472,1.229-3.472,3.567c0,1.543,1.349,2.485,4.007,2.804
		c3.631,0.424,6.271,1.7,7.852,3.8c1.072,1.424,1.616,3.188,1.616,5.247c0,2.463-0.938,4.427-2.871,6.003
		C191.138,51.621,188.793,52.422,186.107,52.422z"/>
	<path fill="#00A99D" d="M216.062,52.422c-4.113,0-7.672-1.483-10.577-4.41c-2.951-2.929-4.446-6.499-4.446-10.612
		c0-4.112,1.495-7.671,4.442-10.577c2.91-2.951,6.469-4.445,10.581-4.445c4.135,0,7.716,1.494,10.643,4.442
		c0.674,0.655,1.271,1.352,1.786,2.077l-5.128,3.847c-0.332-0.498-0.722-0.979-1.16-1.437c-1.707-1.684-3.77-2.532-6.141-2.532
		c-2.35,0-4.4,0.849-6.098,2.521c-1.657,1.704-2.494,3.755-2.494,6.104s0.837,4.399,2.486,6.096
		c1.705,1.681,3.756,2.528,6.105,2.528c2.37,0,4.433-0.848,6.131-2.521c0.457-0.458,0.852-0.94,1.179-1.44l5.12,3.839
		c-0.516,0.73-1.115,1.438-1.785,2.109C223.779,50.938,220.198,52.422,216.062,52.422z"/>
	<path fill="#00A99D" d="M255,52v-2.296l-0.559,0.483c-2.352,1.482-4.936,2.234-7.886,2.234c-4.113,0-7.62-1.483-10.524-4.41
		c-2.951-2.929-4.42-6.499-4.42-10.612c0-4.112,1.508-7.671,4.455-10.577c2.91-2.951,6.475-4.445,10.588-4.445
		c4.135,0,7.86,1.494,10.787,4.442c2.93,2.909,4.559,6.468,4.559,10.58V52H255z M246.66,28.774c-2.35,0-4.4,0.849-6.098,2.521
		c-1.657,1.704-2.494,3.755-2.494,6.104s0.837,4.399,2.486,6.096c1.705,1.681,3.756,2.528,6.105,2.528
		c2.37,0,4.433-0.848,6.131-2.521c1.678-1.702,2.527-3.754,2.527-6.104s-0.85-4.401-2.522-6.098
		C251.094,29.623,249.031,28.774,246.66,28.774z"/>
	<path fill="#00A99D" d="M268,76V37.399c0-4.137,1.335-7.707,4.219-10.614c2.928-2.947,6.444-4.441,10.579-4.441
		c4.112,0,7.64,1.494,10.544,4.441c2.953,2.911,4.432,6.48,4.432,10.614c0,4.113-1.503,7.683-4.451,10.61
		c-2.908,2.929-6.471,4.412-10.584,4.412c-2.929,0-5.619-0.741-7.949-2.203L274,49.738V76H268z"/>
	<path fill="#00A99D" d="M316.809,52c-1.891,0-3.741-0.133-5.5-0.812c-1.82-0.719-3.455-1.656-4.855-2.993
		c-1.486-1.381-2.495-2.959-3.278-4.802c-0.811-1.748-1.175-3.541-1.175-5.448v-0.479c0-1.911,0.204-3.761,0.883-5.498
		c0.721-1.823,1.684-3.459,2.998-4.859c1.398-1.483,3.008-2.821,4.852-3.605c1.812-0.81,3.682-1.502,5.631-1.502h0.313
		c1.886,0,3.735,0.543,5.496,1.243c1.802,0.72,3.438,1.858,4.862,3.196c1.631,1.57,3.217,4.218,4.714,7.778l-21.112,9.306
		l0.641,0.527c0.718,0.58,1.494,1.033,2.307,1.358c1.027,0.396,2.077,0.591,3.126,0.591h0.33c1.089,0,2.148-0.281,3.171-0.723
		c1.047-0.464,1.988-1.117,2.802-1.954c0.625-0.725,1.14-1.497,1.549-2.321l5.954,2.293c-0.707,1.619-1.674,3.098-2.877,4.398
		c-1.377,1.482-3.009,2.421-4.849,3.203c-1.767,0.809-3.622,1.104-5.526,1.104H316.809z M316.457,29
		c-1.089,0-2.16,0.182-3.183,0.623c-1.094,0.488-2.046,1.09-2.835,1.904c-0.713,0.852-1.282,1.74-1.717,2.726
		c-0.357,0.904-0.558,1.787-0.604,2.673l-0.041,0.802l14.742-6.474l-0.646-0.519c-0.695-0.556-1.456-0.9-2.262-1.246
		c-1.088-0.402-2.189-0.489-3.301-0.489h-0.144H316.457z"/>
</g>
</svg>
